<svg width="16" height="20" viewBox="0 0 16 20" xmlns="http://www.w3.org/2000/svg">
<path d="M10.5689 9.57143C10.5689 10.9877 9.41378 12.1429 7.99749 12.1429C6.58119 12.1429 5.42606 10.9877 5.42606 9.57143C5.42606 8.15513 6.58119 7 7.99749 7C9.41378 7 10.5689 8.15513 10.5689 9.57143ZM15.7118 8.47656C15.7118 8.3058 15.5912 8.14509 15.4205 8.11496L13.5823 7.83371C13.4819 7.50223 13.3412 7.17076 13.1705 6.84933C13.512 6.37723 13.8836 5.93527 14.2252 5.47321C14.2754 5.4029 14.3055 5.33259 14.3055 5.24219C14.3055 5.16183 14.2854 5.08147 14.2352 5.0212C13.8133 4.42857 13.1102 3.8058 12.5778 3.31362C12.5075 3.25335 12.4171 3.21317 12.3267 3.21317C12.2363 3.21317 12.1459 3.2433 12.0857 3.30357L10.6593 4.37835C10.368 4.22768 10.0667 4.10714 9.7553 4.0067L9.47405 2.15848C9.45396 1.98772 9.29325 1.85714 9.11244 1.85714H6.88253C6.70173 1.85714 6.56111 1.97768 6.52093 2.13839C6.36021 2.74107 6.29994 3.39397 6.22963 4.0067C5.91825 4.10714 5.60686 4.23772 5.31557 4.38839L3.92941 3.31362C3.84905 3.25335 3.75865 3.21317 3.66825 3.21317C3.32673 3.21317 1.9707 4.67969 1.72963 5.01116C1.67941 5.08147 1.63923 5.15179 1.63923 5.24219C1.63923 5.33259 1.67941 5.41295 1.73968 5.48326C2.11133 5.93527 2.47294 6.38728 2.81445 6.86942C2.65374 7.17076 2.52316 7.4721 2.42271 7.79353L0.554408 8.07478C0.403739 8.10491 0.283203 8.28571 0.283203 8.43638V10.6663C0.283203 10.8371 0.403739 10.9978 0.574498 11.0279L2.41267 11.2991C2.51311 11.6406 2.65374 11.9721 2.8245 12.2935C2.48298 12.7656 2.11133 13.2076 1.76981 13.6696C1.71959 13.74 1.68945 13.8103 1.68945 13.9007C1.68945 13.981 1.70954 14.0614 1.75977 14.1317C2.18164 14.7143 2.88477 15.3371 3.41713 15.8192C3.48744 15.8895 3.57785 15.9297 3.66825 15.9297C3.75865 15.9297 3.84905 15.8996 3.91936 15.8393L5.33566 14.7645C5.62695 14.9152 5.92829 15.0357 6.23968 15.1362L6.52093 16.9844C6.54102 17.1551 6.70173 17.2857 6.88253 17.2857H9.11244C9.29325 17.2857 9.43387 17.1652 9.47405 17.0045C9.63477 16.4018 9.69503 15.7489 9.76535 15.1362C10.0767 15.0357 10.3881 14.9051 10.6794 14.7545L12.0656 15.8393C12.1459 15.8895 12.2363 15.9297 12.3267 15.9297C12.6682 15.9297 14.0243 14.4531 14.2653 14.1317C14.3256 14.0614 14.3557 13.9911 14.3557 13.9007C14.3557 13.8103 14.3156 13.7199 14.2553 13.6496C13.8836 13.1975 13.522 12.7556 13.1805 12.2634C13.3412 11.9721 13.4618 11.6708 13.5723 11.3493L15.4305 11.0681C15.5912 11.0379 15.7118 10.8571 15.7118 10.7065V8.47656Z"/>
</svg>
