<svg width="16" height="20" viewBox="0 0 16 20" xmlns="http://www.w3.org/2000/svg">
<path d="M15.7118 2.5C15.7118 2.14844 15.4205 1.85714 15.0689 1.85714H9.92606C9.5745 1.85714 9.2832 2.14844 9.2832 2.5V16.6429C9.2832 16.9944 9.5745 17.2857 9.92606 17.2857H15.0689C15.4205 17.2857 15.7118 16.9944 15.7118 16.6429V2.5ZM6.71177 2.5C6.71177 2.14844 6.42048 1.85714 6.06892 1.85714H0.92606C0.574498 1.85714 0.283203 2.14844 0.283203 2.5V16.6429C0.283203 16.9944 0.574498 17.2857 0.92606 17.2857H6.06892C6.42048 17.2857 6.71177 16.9944 6.71177 16.6429V2.5Z"/>
</svg>
